<svg width="76" height="94" viewBox="0 0 76 94" fill="none" xmlns="http://www.w3.org/2000/svg">
<path d="M75 17.277L73.1855 17.7316L67.7418 19.0956L52.3181 22.2782L55.04 13.1851C33.719 7.27451 11.4908 19.5502 5.13982 40.9191C-1.66474 62.288 9.67619 85.0208 30.5435 92.75C8.31528 85.0208 -4.38657 60.924 2.87163 37.7365C10.1298 15.0037 34.1726 1.81863 56.8545 8.63848L59.1227 0L75 17.277Z" fill="#00C368"/>
<path d="M76 18.277L74.1855 18.7316L68.7418 20.0956L53.3181 23.2782L56.04 14.1851C34.719 8.27451 12.4908 20.5502 6.13982 41.9191C-0.664743 63.288 10.6762 86.0208 31.5435 93.75C9.31528 86.0208 -3.38657 61.924 3.87163 38.7365C11.1298 16.0037 35.1726 2.81863 57.8545 9.63848L60.1227 1L76 18.277Z" fill="#00C368"/>
</svg>
